<svg xmlns="http://www.w3.org/2000/svg" viewBox="0 0 64 64" width="64" height="64">
  <defs>
    <!-- Blue beaker gradient -->
    <linearGradient id="beakerBlue" x1="0%" y1="0%" x2="0%" y2="100%">
      <stop offset="0%" style="stop-color:#2563eb;stop-opacity:1" />
      <stop offset="100%" style="stop-color:#1d4ed8;stop-opacity:1" />
    </linearGradient>
    
    <!-- Fluorescent liquid gradient -->
    <linearGradient id="fluorescentLiquid" x1="0%" y1="100%" x2="0%" y2="0%">
      <stop offset="0%" style="stop-color:#00ff66;stop-opacity:1" />
      <stop offset="50%" style="stop-color:#00ff88;stop-opacity:0.9" />
      <stop offset="100%" style="stop-color:#66ffaa;stop-opacity:0.6" />
    </linearGradient>

    <!-- Glow effect for liquid -->
    <filter id="glow">
      <feGaussianBlur stdDeviation="2" result="coloredBlur"/>
      <feMerge> 
        <feMergeNode in="coloredBlur"/>
        <feMergeNode in="SourceGraphic"/>
      </feMerge>
    </filter>
  </defs>

  <!-- Large Beaker - Doubled size, centered -->
  <g transform="translate(8, 2)">
    <!-- Beaker neck - Larger -->
    <rect x="20" y="8" width="16" height="10" 
          fill="none" 
          stroke="url(#beakerBlue)" 
          stroke-width="3" 
          rx="2"/>
    
    <!-- Beaker body - Much larger Erlenmeyer flask -->
    <path d="M20 18 L10 48 Q10 56 18 56 L30 56 Q38 56 38 48 L28 18 Z" 
          fill="none" 
          stroke="url(#beakerBlue)" 
          stroke-width="3" 
          stroke-linejoin="round"/>
    
    <!-- Beaker flat base -->
    <line x1="10" y1="56" x2="38" y2="56" 
          stroke="url(#beakerBlue)" 
          stroke-width="3" 
          stroke-linecap="round"/>
    
    <!-- Fluorescent liquid inside - Much larger -->
    <path d="M21.5 24 L12 45 Q12 52 18.5 52 L29.5 52 Q36 52 36 45 L26.5 24 Z" 
          fill="url(#fluorescentLiquid)" 
          filter="url(#glow)"/>
    
    <!-- Liquid surface - Larger -->
    <ellipse cx="24" cy="24" rx="5" ry="1.5" 
             fill="#00ff77" 
             opacity="0.9"/>
    
    <!-- Volume measurement lines - Proportional -->
    <line x1="13" y1="32" x2="18" y2="32" stroke="#1d4ed8" stroke-width="1.5" opacity="0.7"/>
    <line x1="13" y1="38" x2="18" y2="38" stroke="#1d4ed8" stroke-width="1.5" opacity="0.7"/>
    <line x1="13" y1="44" x2="18" y2="44" stroke="#1d4ed8" stroke-width="1.5" opacity="0.7"/>
    
    <!-- Fluorescent bubbles - Larger -->
    <circle cx="22" cy="42" r="2" fill="#ffffff" opacity="0.7"/>
    <circle cx="26" cy="36" r="1.5" fill="#ffffff" opacity="0.5"/>
    <circle cx="25" cy="46" r="1.2" fill="#ffffff" opacity="0.6"/>
    
    <!-- Extra fluorescence particles - Larger -->
    <circle cx="20" cy="35" r="0.8" fill="#00ffaa" opacity="0.8"/>
    <circle cx="27" cy="41" r="0.6" fill="#00ff99" opacity="0.7"/>
    <circle cx="23" cy="49" r="0.5" fill="#44ffdd" opacity="0.6"/>
  </g>
</svg>