<svg xmlns="http://www.w3.org/2000/svg" viewBox="0 0 64 64" width="64" height="64">
  <defs>
    <!-- Blue beaker gradient -->
    <linearGradient id="beakerBlue" x1="0%" y1="0%" x2="0%" y2="100%">
      <stop offset="0%" style="stop-color:#2563eb;stop-opacity:1" />
      <stop offset="100%" style="stop-color:#1d4ed8;stop-opacity:1" />
    </linearGradient>
    
    <!-- Fluorescent liquid gradient -->
    <linearGradient id="fluorescentLiquid" x1="0%" y1="100%" x2="0%" y2="0%">
      <stop offset="0%" style="stop-color:#00ff66;stop-opacity:1" />
      <stop offset="50%" style="stop-color:#00ff88;stop-opacity:0.9" />
      <stop offset="100%" style="stop-color:#66ffaa;stop-opacity:0.6" />
    </linearGradient>

    <!-- Glow effect for liquid -->
    <filter id="glow">
      <feGaussianBlur stdDeviation="1.5" result="coloredBlur"/>
      <feMerge> 
        <feMergeNode in="coloredBlur"/>
        <feMergeNode in="SourceGraphic"/>
      </feMerge>
    </filter>
  </defs>

  <!-- Beaker outline - Blue, no spout -->
  <g transform="translate(16, 8)">
    <!-- Beaker neck -->
    <rect x="12" y="8" width="8" height="6" 
          fill="none" 
          stroke="url(#beakerBlue)" 
          stroke-width="2.5" 
          rx="1"/>
    
    <!-- Beaker body - Erlenmeyer flask without spout -->
    <path d="M12 14 L8 32 Q8 36 12 36 L20 36 Q24 36 24 32 L20 14 Z" 
          fill="none" 
          stroke="url(#beakerBlue)" 
          stroke-width="2.5" 
          stroke-linejoin="round"/>
    
    <!-- Beaker flat base -->
    <line x1="8" y1="36" x2="24" y2="36" 
          stroke="url(#beakerBlue)" 
          stroke-width="2.5" 
          stroke-linecap="round"/>
    
    <!-- Fluorescent liquid inside -->
    <path d="M13 18 L9.5 30 Q9.5 34 13 34 L19 34 Q22.5 34 22.5 30 L18.5 18 Z" 
          fill="url(#fluorescentLiquid)" 
          filter="url(#glow)"/>
    
    <!-- Liquid surface -->
    <ellipse cx="16" cy="18" rx="2.75" ry="0.8" 
             fill="#00ff77" 
             opacity="0.9"/>
    
    <!-- Volume measurement lines -->
    <line x1="10" y1="22" x2="12.5" y2="22" stroke="#1d4ed8" stroke-width="1" opacity="0.6"/>
    <line x1="10" y1="26" x2="12.5" y2="26" stroke="#1d4ed8" stroke-width="1" opacity="0.6"/>
    <line x1="10" y1="30" x2="12.5" y2="30" stroke="#1d4ed8" stroke-width="1" opacity="0.6"/>
    
    <!-- Fluorescent bubbles -->
    <circle cx="15" cy="28" r="1" fill="#ffffff" opacity="0.7"/>
    <circle cx="17.5" cy="25" r="0.8" fill="#ffffff" opacity="0.5"/>
    <circle cx="18" cy="31" r="0.6" fill="#ffffff" opacity="0.6"/>
    
    <!-- Extra fluorescence particles -->
    <circle cx="14.5" cy="24" r="0.4" fill="#00ffaa" opacity="0.8"/>
    <circle cx="17" cy="29" r="0.3" fill="#00ff99" opacity="0.7"/>
  </g>

  <!-- Optional subtle background circle for better visibility -->
  <circle cx="32" cy="32" r="30" fill="none" stroke="#e5e7eb" stroke-width="1" opacity="0.3"/>
</svg>